<svg version="1.1" viewBox="0.0 0.0 622.9186351706037 520.9028871391076" fill="none" stroke="none" stroke-linecap="square" stroke-miterlimit="10" xmlns:xlink="http://www.w3.org/1999/xlink" xmlns="http://www.w3.org/2000/svg"><clipPath id="p.0"><path d="m0 0l622.91864 0l0 520.9029l-622.91864 0l0 -520.9029z" clip-rule="nonzero"/></clipPath><g clip-path="url(#p.0)"><path fill="#000000" fill-opacity="0.0" d="m0 0l622.91864 0l0 520.9029l-622.91864 0z" fill-rule="evenodd"/><path fill="#b7b7b7" d="m270.73227 168.84344l66.1026 -1.376236l25.049591 46.1279l-89.76126 57.143143z" fill-rule="evenodd"/><path stroke="#000000" stroke-width="1.0" stroke-linejoin="round" stroke-linecap="butt" d="m270.73227 168.84344l66.1026 -1.376236l25.049591 46.1279l-89.76126 57.143143z" fill-rule="evenodd"/><path fill="#000000" fill-opacity="0.0" d="m270.3071 477.47244l0 -468.0" fill-rule="evenodd"/><path stroke="#000000" stroke-width="1.0" stroke-linejoin="round" stroke-linecap="butt" d="m270.3071 477.47244l0 -462.0" fill-rule="evenodd"/><path fill="#000000" stroke="#000000" stroke-width="1.0" stroke-linecap="butt" d="m271.95883 15.472441l-1.6517334 -4.5380974l-1.6517334 4.5380974z" fill-rule="evenodd"/><path fill="#000000" fill-opacity="0.0" d="m11.6850395 271.89502l584.5354 0" fill-rule="evenodd"/><path stroke="#000000" stroke-width="1.0" stroke-linejoin="round" stroke-linecap="butt" d="m11.6850395 271.89502l578.5354 0" fill-rule="evenodd"/><path fill="#000000" stroke="#000000" stroke-width="1.0" stroke-linecap="butt" d="m590.22046 273.54675l4.538086 -1.6517334l-4.538086 -1.6517334z" fill-rule="evenodd"/><path fill="#000000" fill-opacity="0.0" d="m150.73228 270.9475l51.157486 -102.31491l136.4252 0l51.15747 102.31491l-51.15747 102.31491l-136.4252 0z" fill-rule="evenodd"/><path stroke="#000000" stroke-width="1.0" stroke-linejoin="round" stroke-linecap="butt" d="m150.73228 270.9475l51.157486 -102.31491l136.4252 0l51.15747 102.31491l-51.15747 102.31491l-136.4252 0z" fill-rule="evenodd"/><path fill="#cc0000" d="m196.20473 167.91602l0 0c0 -4.574829 3.17984 -8.283463 7.102356 -8.283463l0 0c1.883667 0 3.6901855 0.8727112 5.0221252 2.4261627c1.331955 1.5534515 2.080246 3.6603851 2.080246 5.8573l0 0c0 4.574829 -3.17984 8.283463 -7.102371 8.283463l0 0c-3.9225159 0 -7.102356 -3.7086334 -7.102356 -8.283463z" fill-rule="evenodd"/><path stroke="#000000" stroke-width="1.0" stroke-linejoin="round" stroke-linecap="butt" d="m196.20473 167.91602l0 0c0 -4.574829 3.17984 -8.283463 7.102356 -8.283463l0 0c1.883667 0 3.6901855 0.8727112 5.0221252 2.4261627c1.331955 1.5534515 2.080246 3.6603851 2.080246 5.8573l0 0c0 4.574829 -3.17984 8.283463 -7.102371 8.283463l0 0c-3.9225159 0 -7.102356 -3.7086334 -7.102356 -8.283463z" fill-rule="evenodd"/><path fill="#cc0000" d="m146.83727 271.89502l0 0c0 -4.574829 3.17984 -8.283478 7.102371 -8.283478l0 0c1.883667 0 3.6901703 0.8727417 5.0221252 2.426178c1.331955 1.5534363 2.0802307 3.6603699 2.0802307 5.8573l0 0c0 4.574829 -3.17984 8.283447 -7.102356 8.283447l0 0c-3.9225311 0 -7.102371 -3.7086182 -7.102371 -8.283447z" fill-rule="evenodd"/><path stroke="#000000" stroke-width="1.0" stroke-linejoin="round" stroke-linecap="butt" d="m146.83727 271.89502l0 0c0 -4.574829 3.17984 -8.283478 7.102371 -8.283478l0 0c1.883667 0 3.6901703 0.8727417 5.0221252 2.426178c1.331955 1.5534363 2.0802307 3.6603699 2.0802307 5.8573l0 0c0 4.574829 -3.17984 8.283447 -7.102356 8.283447l0 0c-3.9225311 0 -7.102371 -3.7086182 -7.102371 -8.283447z" fill-rule="evenodd"/><path fill="#cc0000" d="m196.20473 375.87402l0 0c0 -4.574829 3.17984 -8.283478 7.102356 -8.283478l0 0c1.883667 0 3.6901855 0.8727112 5.0221252 2.426178c1.331955 1.5534363 2.080246 3.6603699 2.080246 5.8573l0 0c0 4.574829 -3.17984 8.283447 -7.102371 8.283447l0 0c-3.9225159 0 -7.102356 -3.7086182 -7.102356 -8.283447z" fill-rule="evenodd"/><path stroke="#000000" stroke-width="1.0" stroke-linejoin="round" stroke-linecap="butt" d="m196.20473 375.87402l0 0c0 -4.574829 3.17984 -8.283478 7.102356 -8.283478l0 0c1.883667 0 3.6901855 0.8727112 5.0221252 2.426178c1.331955 1.5534363 2.080246 3.6603699 2.080246 5.8573l0 0c0 4.574829 -3.17984 8.283447 -7.102371 8.283447l0 0c-3.9225159 0 -7.102356 -3.7086182 -7.102356 -8.283447z" fill-rule="evenodd"/><path fill="#cc0000" d="m328.30972 375.87402l0 0c0 -4.574829 3.1798096 -8.283478 7.102356 -8.283478l0 0c1.883667 0 3.6901855 0.8727112 5.0221252 2.426178c1.3319397 1.5534363 2.0802307 3.6603699 2.0802307 5.8573l0 0c0 4.574829 -3.17984 8.283447 -7.102356 8.283447l0 0c-3.9225464 0 -7.102356 -3.7086182 -7.102356 -8.283447z" fill-rule="evenodd"/><path stroke="#000000" stroke-width="1.0" stroke-linejoin="round" stroke-linecap="butt" d="m328.30972 375.87402l0 0c0 -4.574829 3.1798096 -8.283478 7.102356 -8.283478l0 0c1.883667 0 3.6901855 0.8727112 5.0221252 2.426178c1.3319397 1.5534363 2.0802307 3.6603699 2.0802307 5.8573l0 0c0 4.574829 -3.17984 8.283447 -7.102356 8.283447l0 0c-3.9225464 0 -7.102356 -3.7086182 -7.102356 -8.283447z" fill-rule="evenodd"/><path fill="#cc0000" d="m379.57217 271.89502l0 0c0 -4.574829 3.17984 -8.283478 7.102356 -8.283478l0 0c1.883667 0 3.6901855 0.8727417 5.0221252 2.426178c1.3319702 1.5534363 2.0802612 3.6603699 2.0802612 5.8573l0 0c0 4.574829 -3.17984 8.283447 -7.1023865 8.283447l0 0c-3.9225159 0 -7.102356 -3.7086182 -7.102356 -8.283447z" fill-rule="evenodd"/><path stroke="#000000" stroke-width="1.0" stroke-linejoin="round" stroke-linecap="butt" d="m379.57217 271.89502l0 0c0 -4.574829 3.17984 -8.283478 7.102356 -8.283478l0 0c1.883667 0 3.6901855 0.8727417 5.0221252 2.426178c1.3319702 1.5534363 2.0802612 3.6603699 2.0802612 5.8573l0 0c0 4.574829 -3.17984 8.283447 -7.1023865 8.283447l0 0c-3.9225159 0 -7.102356 -3.7086182 -7.102356 -8.283447z" fill-rule="evenodd"/><path fill="#cc0000" d="m328.30972 167.91602l0 0c0 -4.574829 3.1798096 -8.283463 7.102356 -8.283463l0 0c1.883667 0 3.6901855 0.8727112 5.0221252 2.4261627c1.3319397 1.5534515 2.0802307 3.6603851 2.0802307 5.8573l0 0c0 4.574829 -3.17984 8.283463 -7.102356 8.283463l0 0c-3.9225464 0 -7.102356 -3.7086334 -7.102356 -8.283463z" fill-rule="evenodd"/><path stroke="#000000" stroke-width="1.0" stroke-linejoin="round" stroke-linecap="butt" d="m328.30972 167.91602l0 0c0 -4.574829 3.1798096 -8.283463 7.102356 -8.283463l0 0c1.883667 0 3.6901855 0.8727112 5.0221252 2.4261627c1.3319397 1.5534515 2.0802307 3.6603851 2.0802307 5.8573l0 0c0 4.574829 -3.17984 8.283463 -7.102356 8.283463l0 0c-3.9225464 0 -7.102356 -3.7086334 -7.102356 -8.283463z" fill-rule="evenodd"/><path fill="#000000" fill-opacity="0.0" d="m270.3071 271.89502l0 -103.275604" fill-rule="evenodd"/><path stroke="#000000" stroke-width="3.0" stroke-linejoin="round" stroke-linecap="butt" d="m270.3071 271.89502l0 -85.275604" fill-rule="evenodd"/><path fill="#000000" stroke="#000000" stroke-width="3.0" stroke-linecap="butt" d="m275.2623 186.61942l-4.9552 -13.614288l-4.9552 13.614288z" fill-rule="evenodd"/><path fill="#000000" fill-opacity="0.0" d="m270.3071 271.89502l88.85037 -58.740158" fill-rule="evenodd"/><path stroke="#000000" stroke-width="3.0" stroke-linejoin="round" stroke-linecap="butt" d="m270.3071 271.89502l73.83508 -48.81337" fill-rule="evenodd"/><path fill="#000000" stroke="#000000" stroke-width="3.0" stroke-linecap="butt" d="m346.87494 227.2152l8.624054 -11.641678l-14.089539 3.3746033z" fill-rule="evenodd"/><path fill="#000000" fill-opacity="0.0" d="m268.41995 270.9475l89.35434 62.173218" fill-rule="evenodd"/><path stroke="#000000" stroke-width="3.0" stroke-linejoin="round" stroke-linecap="butt" d="m268.41995 270.9475l74.5791 51.892517" fill-rule="evenodd"/><path fill="#000000" stroke="#000000" stroke-width="3.0" stroke-linecap="butt" d="m340.16888 326.9075l14.005402 3.7083435l-8.345093 -11.843262z" fill-rule="evenodd"/><path fill="#000000" fill-opacity="0.0" d="m271.26248 272.84253l-0.94488525 101.35431" fill-rule="evenodd"/><path stroke="#000000" stroke-width="3.0" stroke-linejoin="round" stroke-linecap="butt" d="m271.26248 272.84253l-0.7770996 83.3551" fill-rule="evenodd"/><path fill="#000000" stroke="#000000" stroke-width="3.0" stroke-linecap="butt" d="m265.5304 356.15143l4.828064 13.659912l5.081909 -13.567505z" fill-rule="evenodd"/><path fill="#000000" fill-opacity="0.0" d="m269.36746 271.89502l-91.14961 59.8425" fill-rule="evenodd"/><path stroke="#000000" stroke-width="3.0" stroke-linejoin="round" stroke-linecap="butt" d="m269.36746 271.89502l-76.10269 49.963745" fill-rule="evenodd"/><path fill="#000000" stroke="#000000" stroke-width="3.0" stroke-linecap="butt" d="m190.54526 317.71652l-8.661224 11.614044l14.10025 -3.3295593z" fill-rule="evenodd"/><path fill="#000000" fill-opacity="0.0" d="m268.41995 270.9475l-88.157486 -59.149612" fill-rule="evenodd"/><path stroke="#000000" stroke-width="3.0" stroke-linejoin="round" stroke-linecap="butt" d="m268.41995 270.9475l-73.21022 -49.12068" fill-rule="evenodd"/><path fill="#000000" stroke="#000000" stroke-width="3.0" stroke-linecap="butt" d="m197.97058 217.712l-14.066208 -3.4705505l8.54451 11.70018z" fill-rule="evenodd"/><path fill="#000000" fill-opacity="0.0" d="m269.36746 73.338585l193.51181 0l0 42.015747l-193.51181 0z" fill-rule="evenodd"/><path fill="#000000" d="m289.16434 87.89921l0.140625 2.90625l-0.359375 0q-0.09375 -0.765625 -0.265625 -1.09375q-0.28125 -0.53125 -0.75 -0.78125q-0.46875 -0.25 -1.234375 -0.25l-1.734375 0l0 9.4375q0 1.140625 0.234375 1.421875q0.34375 0.375 1.0625 0.375l0.4375 0l0 0.34375l-5.234375 0l0 -0.34375l0.4375 0q0.78125 0 1.109375 -0.46875q0.203125 -0.296875 0.203125 -1.328125l0 -9.4375l-1.484375 0q-0.875 0 -1.234375 0.125q-0.46875 0.171875 -0.8125 0.671875q-0.34375 0.484375 -0.40625 1.328125l-0.34375 0l0.140625 -2.90625l10.09375 0zm3.6303406 -0.59375l0 6.109375q1.015625 -1.125 1.609375 -1.4375q0.59375 -0.3125 1.1875 -0.3125q0.703125 0 1.203125 0.390625q0.515625 0.390625 0.765625 1.234375q0.171875 0.578125 0.171875 2.125l0 2.953125q0 0.796875 0.125 1.09375q0.09375 0.21875 0.3125 0.34375q0.21875 0.125 0.796875 0.125l0 0.328125l-4.09375 0l0 -0.328125l0.1875 0q0.59375 0 0.8125 -0.171875q0.234375 -0.1875 0.328125 -0.53125q0.015625 -0.140625 0.015625 -0.859375l0 -2.953125q0 -1.359375 -0.140625 -1.78125q-0.140625 -0.4375 -0.453125 -0.640625q-0.296875 -0.21875 -0.734375 -0.21875q-0.453125 0 -0.9375 0.234375q-0.484375 0.234375 -1.15625 0.953125l0 4.40625q0 0.859375 0.09375 1.078125q0.09375 0.203125 0.359375 0.34375q0.265625 0.140625 0.890625 0.140625l0 0.328125l-4.125 0l0 -0.328125q0.546875 0 0.875 -0.171875q0.171875 -0.09375 0.28125 -0.34375q0.109375 -0.265625 0.109375 -1.046875l0 -7.546875q0 -1.4375 -0.0625 -1.765625q-0.0625 -0.328125 -0.203125 -0.4375q-0.140625 -0.125 -0.390625 -0.125q-0.1875 0 -0.609375 0.15625l-0.125 -0.328125l2.484375 -1.015625l0.421875 0zm8.28125 7.75q0 1.859375 0.90625 2.921875q0.90625 1.046875 2.140625 1.046875q0.8125 0 1.421875 -0.4375q0.609375 -0.453125 1.015625 -1.546875l0.28125 0.171875q-0.1875 1.25 -1.109375 2.28125q-0.921875 1.015625 -2.296875 1.015625q-1.515625 0 -2.59375 -1.171875q-1.0625 -1.171875 -1.0625 -3.140625q0 -2.140625 1.09375 -3.328125q1.109375 -1.203125 2.765625 -1.203125q1.40625 0 2.296875 0.921875q0.90625 0.921875 0.90625 2.46875l-5.765625 0zm0 -0.53125l3.859375 0q-0.046875 -0.796875 -0.1875 -1.125q-0.234375 -0.515625 -0.6875 -0.796875q-0.4375 -0.296875 -0.9375 -0.296875q-0.75 0 -1.34375 0.59375q-0.59375 0.578125 -0.703125 1.625zm13.975861 -1.09375q1.46875 -1.765625 2.796875 -1.765625q0.6875 0 1.171875 0.34375q0.5 0.34375 0.78125 1.125q0.203125 0.546875 0.203125 1.671875l0 3.5625q0 0.796875 0.125 1.078125q0.109375 0.234375 0.328125 0.359375q0.21875 0.125 0.828125 0.125l0 0.328125l-4.125 0l0 -0.328125l0.171875 0q0.578125 0 0.8125 -0.171875q0.234375 -0.1875 0.328125 -0.53125q0.03125 -0.140625 0.03125 -0.859375l0 -3.40625q0 -1.140625 -0.296875 -1.65625q-0.296875 -0.515625 -1.0 -0.515625q-1.078125 0 -2.15625 1.1875l0 4.390625q0 0.859375 0.09375 1.046875q0.140625 0.265625 0.359375 0.390625q0.21875 0.125 0.90625 0.125l0 0.328125l-4.125 0l0 -0.328125l0.171875 0q0.640625 0 0.859375 -0.3125q0.234375 -0.328125 0.234375 -1.25l0 -3.09375q0 -1.5 -0.078125 -1.828125q-0.0625 -0.328125 -0.203125 -0.4375q-0.140625 -0.125 -0.375 -0.125q-0.265625 0 -0.609375 0.140625l-0.140625 -0.328125l2.515625 -1.03125l0.390625 0l0 1.765625zm10.984375 -1.765625q1.890625 0 3.03125 1.4375q0.984375 1.234375 0.984375 2.828125q0 1.125 -0.546875 2.28125q-0.53125 1.140625 -1.484375 1.71875q-0.9375 0.578125 -2.09375 0.578125q-1.890625 0 -3.0 -1.5q-0.9375 -1.265625 -0.9375 -2.84375q0 -1.140625 0.5625 -2.265625q0.578125 -1.140625 1.5 -1.6875q0.9375 -0.546875 1.984375 -0.546875zm-0.296875 0.59375q-0.46875 0 -0.96875 0.296875q-0.484375 0.28125 -0.78125 1.0q-0.296875 0.71875 -0.296875 1.84375q0 1.828125 0.71875 3.15625q0.71875 1.3125 1.90625 1.3125q0.890625 0 1.453125 -0.71875q0.578125 -0.734375 0.578125 -2.515625q0 -2.21875 -0.953125 -3.5q-0.640625 -0.875 -1.65625 -0.875zm7.984375 -0.59375l0 1.875q1.046875 -1.875 2.140625 -1.875q0.5 0 0.828125 0.3125q0.328125 0.296875 0.328125 0.703125q0 0.359375 -0.234375 0.609375q-0.234375 0.234375 -0.5625 0.234375q-0.328125 0 -0.71875 -0.3125q-0.390625 -0.3125 -0.578125 -0.3125q-0.171875 0 -0.359375 0.1875q-0.40625 0.359375 -0.84375 1.21875l0 4.0q0 0.703125 0.171875 1.046875q0.109375 0.25 0.40625 0.421875q0.3125 0.15625 0.875 0.15625l0 0.328125l-4.28125 0l0 -0.328125q0.640625 0 0.953125 -0.203125q0.234375 -0.140625 0.3125 -0.46875q0.046875 -0.140625 0.046875 -0.875l0 -3.234375q0 -1.453125 -0.0625 -1.734375q-0.046875 -0.28125 -0.21875 -0.40625q-0.15625 -0.125 -0.390625 -0.125q-0.28125 0 -0.640625 0.140625l-0.078125 -0.328125l2.515625 -1.03125l0.390625 0zm6.243927 1.78125q0.90625 -0.90625 1.078125 -1.046875q0.40625 -0.34375 0.875 -0.53125q0.484375 -0.203125 0.9375 -0.203125q0.78125 0 1.34375 0.46875q0.578125 0.453125 0.765625 1.3125q0.9375 -1.09375 1.578125 -1.4375q0.65625 -0.34375 1.34375 -0.34375q0.65625 0 1.171875 0.34375q0.515625 0.34375 0.8125 1.125q0.203125 0.515625 0.203125 1.65625l0 3.578125q0 0.78125 0.125 1.078125q0.078125 0.203125 0.328125 0.34375q0.25 0.140625 0.796875 0.140625l0 0.328125l-4.109375 0l0 -0.328125l0.171875 0q0.53125 0 0.84375 -0.203125q0.203125 -0.15625 0.296875 -0.46875q0.03125 -0.15625 0.03125 -0.890625l0 -3.578125q0 -1.03125 -0.234375 -1.453125q-0.359375 -0.578125 -1.140625 -0.578125q-0.484375 0 -0.984375 0.25q-0.484375 0.234375 -1.171875 0.890625l-0.015625 0.09375l0.015625 0.40625l0 3.96875q0 0.859375 0.09375 1.078125q0.09375 0.203125 0.359375 0.34375q0.265625 0.140625 0.90625 0.140625l0 0.328125l-4.21875 0l0 -0.328125q0.6875 0 0.953125 -0.15625q0.265625 -0.171875 0.359375 -0.5q0.046875 -0.15625 0.046875 -0.90625l0 -3.578125q0 -1.03125 -0.296875 -1.46875q-0.40625 -0.59375 -1.125 -0.59375q-0.5 0 -0.96875 0.265625q-0.765625 0.40625 -1.171875 0.90625l0 4.46875q0 0.828125 0.109375 1.078125q0.109375 0.234375 0.328125 0.359375q0.234375 0.125 0.921875 0.125l0 0.328125l-4.125 0l0 -0.328125q0.5625 0 0.796875 -0.125q0.234375 -0.125 0.34375 -0.390625q0.125 -0.265625 0.125 -1.046875l0 -3.1875q0 -1.375 -0.09375 -1.765625q-0.0625 -0.3125 -0.203125 -0.421875q-0.125 -0.109375 -0.359375 -0.109375q-0.265625 0 -0.609375 0.140625l-0.140625 -0.328125l2.515625 -1.03125l0.390625 0l0 1.78125zm16.761414 5.609375q-1.28125 1.0 -1.609375 1.15625q-0.5 0.21875 -1.046875 0.21875q-0.875 0 -1.4375 -0.59375q-0.546875 -0.59375 -0.546875 -1.5625q0 -0.609375 0.265625 -1.046875q0.375 -0.625 1.296875 -1.171875q0.921875 -0.546875 3.078125 -1.328125l0 -0.328125q0 -1.25 -0.40625 -1.703125q-0.390625 -0.46875 -1.140625 -0.46875q-0.578125 0 -0.921875 0.3125q-0.34375 0.296875 -0.34375 0.703125l0.015625 0.53125q0 0.421875 -0.21875 0.65625q-0.203125 0.21875 -0.546875 0.21875q-0.34375 0 -0.5625 -0.234375q-0.203125 -0.234375 -0.203125 -0.65625q0 -0.78125 0.796875 -1.4375q0.8125 -0.65625 2.25 -0.65625q1.109375 0 1.828125 0.375q0.53125 0.28125 0.796875 0.890625q0.15625 0.390625 0.15625 1.59375l0 2.84375q0 1.1875 0.046875 1.453125q0.046875 0.265625 0.140625 0.359375q0.109375 0.09375 0.25 0.09375q0.140625 0 0.25 -0.0625q0.203125 -0.125 0.75 -0.671875l0 0.515625q-1.03125 1.359375 -1.953125 1.359375q-0.453125 0 -0.71875 -0.296875q-0.265625 -0.3125 -0.265625 -1.0625zm0 -0.59375l0 -3.171875q-1.375 0.546875 -1.78125 0.765625q-0.71875 0.40625 -1.03125 0.84375q-0.296875 0.4375 -0.296875 0.953125q0 0.65625 0.390625 1.09375q0.390625 0.421875 0.890625 0.421875q0.703125 0 1.828125 -0.90625zm6.421173 -11.15625l0 11.0625q0 0.78125 0.109375 1.046875q0.125 0.25 0.359375 0.390625q0.234375 0.125 0.875 0.125l0 0.328125l-4.09375 0l0 -0.328125q0.578125 0 0.78125 -0.109375q0.21875 -0.125 0.328125 -0.390625q0.125 -0.28125 0.125 -1.0625l0 -7.578125q0 -1.40625 -0.0625 -1.734375q-0.0625 -0.328125 -0.203125 -0.4375q-0.140625 -0.125 -0.359375 -0.125q-0.234375 0 -0.609375 0.15625l-0.140625 -0.328125l2.484375 -1.015625l0.40625 0zm10.237976 5.265625l0 5.484375q0 1.171875 0.25 1.46875q0.34375 0.40625 0.90625 0.40625l0.75 0l0 0.328125l-4.96875 0l0 -0.328125l0.359375 0q0.375 0 0.671875 -0.171875q0.296875 -0.1875 0.40625 -0.5q0.125 -0.3125 0.125 -1.203125l0 -5.484375l-1.625 0l0 -0.65625l1.625 0l0 -0.546875q0 -1.25 0.390625 -2.109375q0.40625 -0.875 1.234375 -1.40625q0.828125 -0.53125 1.859375 -0.53125q0.953125 0 1.75 0.625q0.53125 0.40625 0.53125 0.921875q0 0.265625 -0.234375 0.515625q-0.234375 0.234375 -0.515625 0.234375q-0.203125 0 -0.4375 -0.140625q-0.234375 -0.15625 -0.578125 -0.65625q-0.328125 -0.5 -0.609375 -0.671875q-0.28125 -0.171875 -0.640625 -0.171875q-0.40625 0 -0.703125 0.234375q-0.296875 0.21875 -0.421875 0.6875q-0.125 0.46875 -0.125 2.40625l0 0.609375l2.15625 0l0 0.65625l-2.15625 0zm7.681427 6.484375q-1.28125 1.0 -1.609375 1.15625q-0.5 0.21875 -1.046875 0.21875q-0.875 0 -1.4375 -0.59375q-0.546875 -0.59375 -0.546875 -1.5625q0 -0.609375 0.265625 -1.046875q0.375 -0.625 1.296875 -1.171875q0.921875 -0.546875 3.078125 -1.328125l0 -0.328125q0 -1.25 -0.40625 -1.703125q-0.390625 -0.46875 -1.140625 -0.46875q-0.578125 0 -0.921875 0.3125q-0.34375 0.296875 -0.34375 0.703125l0.015625 0.53125q0 0.421875 -0.21875 0.65625q-0.203125 0.21875 -0.546875 0.21875q-0.34375 0 -0.5625 -0.234375q-0.203125 -0.234375 -0.203125 -0.65625q0 -0.78125 0.796875 -1.4375q0.8125 -0.65625 2.25 -0.65625q1.109375 0 1.828125 0.375q0.53125 0.28125 0.796875 0.890625q0.15625 0.390625 0.15625 1.59375l0 2.84375q0 1.1875 0.046875 1.453125q0.046875 0.265625 0.140625 0.359375q0.109375 0.09375 0.25 0.09375q0.140625 0 0.25 -0.0625q0.203125 -0.125 0.75 -0.671875l0 0.515625q-1.03125 1.359375 -1.953125 1.359375q-0.453125 0 -0.71875 -0.296875q-0.265625 -0.3125 -0.265625 -1.0625zm0 -0.59375l0 -3.171875q-1.375 0.546875 -1.78125 0.765625q-0.71875 0.40625 -1.03125 0.84375q-0.296875 0.4375 -0.296875 0.953125q0 0.65625 0.390625 1.09375q0.390625 0.421875 0.890625 0.421875q0.703125 0 1.828125 -0.90625zm5.983673 -5.03125q1.46875 -1.765625 2.796875 -1.765625q0.6875 0 1.171875 0.34375q0.5 0.34375 0.78125 1.125q0.203125 0.546875 0.203125 1.671875l0 3.5625q0 0.796875 0.125 1.078125q0.109375 0.234375 0.328125 0.359375q0.21875 0.125 0.828125 0.125l0 0.328125l-4.125 0l0 -0.328125l0.171875 0q0.578125 0 0.8125 -0.171875q0.234375 -0.1875 0.328125 -0.53125q0.03125 -0.140625 0.03125 -0.859375l0 -3.40625q0 -1.140625 -0.296875 -1.65625q-0.296875 -0.515625 -1.0 -0.515625q-1.078125 0 -2.15625 1.1875l0 4.390625q0 0.859375 0.09375 1.046875q0.140625 0.265625 0.359375 0.390625q0.21875 0.125 0.90625 0.125l0 0.328125l-4.125 0l0 -0.328125l0.171875 0q0.640625 0 0.859375 -0.3125q0.234375 -0.328125 0.234375 -1.25l0 -3.09375q0 -1.5 -0.078125 -1.828125q-0.0625 -0.328125 -0.203125 -0.4375q-0.140625 -0.125 -0.375 -0.125q-0.265625 0 -0.609375 0.140625l-0.140625 -0.328125l2.515625 -1.03125l0.390625 0l0 1.765625zm15.6484375 -1.765625q1.890625 0 3.03125 1.4375q0.984375 1.234375 0.984375 2.828125q0 1.125 -0.546875 2.28125q-0.53125 1.140625 -1.484375 1.71875q-0.9375 0.578125 -2.09375 0.578125q-1.890625 0 -3.0 -1.5q-0.9375 -1.265625 -0.9375 -2.84375q0 -1.140625 0.5625 -2.265625q0.578125 -1.140625 1.5 -1.6875q0.9375 -0.546875 1.984375 -0.546875zm-0.296875 0.59375q-0.46875 0 -0.96875 0.296875q-0.484375 0.28125 -0.78125 1.0q-0.296875 0.71875 -0.296875 1.84375q0 1.828125 0.71875 3.15625q0.71875 1.3125 1.90625 1.3125q0.890625 0 1.453125 -0.71875q0.578125 -0.734375 0.578125 -2.515625q0 -2.21875 -0.953125 -3.5q-0.640625 -0.875 -1.65625 -0.875zm8.796875 0.3125l0 5.484375q0 1.171875 0.25 1.46875q0.34375 0.40625 0.90625 0.40625l0.75 0l0 0.328125l-4.96875 0l0 -0.328125l0.359375 0q0.375 0 0.671875 -0.171875q0.296875 -0.1875 0.40625 -0.5q0.125 -0.3125 0.125 -1.203125l0 -5.484375l-1.625 0l0 -0.65625l1.625 0l0 -0.546875q0 -1.25 0.390625 -2.109375q0.40625 -0.875 1.234375 -1.40625q0.828125 -0.53125 1.859375 -0.53125q0.953125 0 1.75 0.625q0.53125 0.40625 0.53125 0.921875q0 0.265625 -0.234375 0.515625q-0.234375 0.234375 -0.515625 0.234375q-0.203125 0 -0.4375 -0.140625q-0.234375 -0.15625 -0.578125 -0.65625q-0.328125 -0.5 -0.609375 -0.671875q-0.28125 -0.171875 -0.640625 -0.171875q-0.40625 0 -0.703125 0.234375q-0.296875 0.21875 -0.421875 0.6875q-0.125 0.46875 -0.125 2.40625l0 0.609375l2.15625 0l0 0.65625l-2.15625 0z" fill-rule="nonzero"/><path fill="#000000" d="m428.8789 93.30546q0.0625 -0.5 0.125 -0.859375q0.078125 -0.359375 0.078125 -0.734375q0 -1.84375 -1.484375 -1.84375q-1.265625 0 -2.484375 1.203125q-1.21875 1.1875 -2.046875 3.234375q-0.828125 2.046875 -0.828125 3.71875q0 1.53125 0.5625 2.375q0.5625 0.859375 1.515625 0.859375q0.78125 0 1.453125 -0.5q0.671875 -0.484375 1.3125 -1.40625q0.140625 -0.21875 0.3125 -0.21875q0.09375 0 0.15625 0.078125q0.0625 0.078125 0.0625 0.171875q0 0.21875 -0.75 1.046875q-0.734375 0.828125 -1.515625 1.21875q-0.78125 0.40625 -1.59375 0.40625q-1.390625 0 -2.265625 -1.109375q-0.859375 -1.109375 -0.859375 -2.90625q0 -1.859375 1.0625 -3.96875q1.0625 -2.125 2.671875 -3.4375q1.625 -1.3125 3.25 -1.3125q0.890625 0 1.953125 0.484375l0.625 0.265625q-0.640625 1.71875 -0.859375 3.234375l-0.453125 0z" fill-rule="nonzero"/><path fill="#000000" d="m429.2503 100.25858l0 -1.875l1.875 0l0 1.875l-1.875 0z" fill-rule="nonzero"/><path fill="#000000" fill-opacity="0.0" d="m344.75592 143.24934l30.834625 0l0 42.015747l-30.834625 0z" fill-rule="evenodd"/><path fill="#000000" fill-opacity="0.0" d="m341.09973 120.14698l50.04724 0l0 48.472435l-50.04724 0z" fill-rule="evenodd"/><path fill="#000000" d="m352.09973 144.7026l-0.375 -0.546875l0.875 -0.578125q1.265625 -0.875 1.78125 -1.125q0.296875 -0.140625 0.53125 -0.140625q0.25 0 0.46875 0.28125q1.03125 1.3125 1.734375 3.515625q0.703125 2.203125 0.703125 4.28125q0 0.265625 -0.015625 0.828125q1.984375 -3.65625 1.984375 -5.796875q0 -0.4375 -0.203125 -1.1875q-0.21875 -0.8125 -0.21875 -1.171875q0 -0.328125 0.21875 -0.546875q0.21875 -0.234375 0.546875 -0.234375q0.40625 0 0.65625 0.328125q0.265625 0.3125 0.265625 0.890625q0 1.515625 -0.703125 3.78125q-0.6875 2.25 -2.171875 4.84375q-1.484375 2.59375 -2.703125 3.84375q-1.21875 1.265625 -2.375 1.8125q-1.140625 0.546875 -2.15625 0.546875q-0.765625 0 -1.15625 -0.296875q-0.40625 -0.28125 -0.40625 -0.671875q0 -0.359375 0.3125 -0.609375q0.296875 -0.25 0.8125 -0.25q0.40625 0 1.09375 0.15625q0.734375 0.15625 1.015625 0.15625q0.703125 0 1.5 -0.59375q1.09375 -0.8125 1.734375 -1.953125q0.640625 -1.140625 0.640625 -2.296875q0 -1.640625 -0.484375 -3.921875q-0.46875 -2.28125 -1.328125 -3.484375q-0.4375 -0.625 -0.9375 -0.625q-0.5625 0 -1.640625 0.765625z" fill-rule="nonzero"/><path fill="#000000" d="m365.2755 144.31198l0.203125 0l-0.90625 3.515625l-0.75 3.265625q-0.109375 0.40625 -0.109375 0.546875q0 0.125 0.109375 0.1875q0.125 0.0625 0.515625 0.109375q0.28125 0.015625 0.5625 0.078125l-0.125 0.328125q-1.40625 -0.15625 -1.953125 -0.15625q-0.8125 0 -1.75 0.15625l0.109375 -0.328125q0.34375 -0.09375 0.78125 -0.1875q0.421875 -0.078125 0.578125 -0.265625q0.21875 -0.21875 0.453125 -1.09375l0.703125 -2.6875q0.34375 -1.53125 0.34375 -1.734375q0 -0.21875 -0.1875 -0.21875q-0.140625 0 -1.3125 0.515625l-0.125 -0.328125q1.6875 -0.796875 2.0625 -1.0625q0.375 -0.265625 0.796875 -0.640625z" fill-rule="nonzero"/><path fill="#000000" fill-opacity="0.0" d="m393.77692 236.21523l50.04724 0l0 48.472427l-50.04724 0z" fill-rule="evenodd"/><path fill="#000000" d="m404.77692 260.77084l-0.375 -0.546875l0.875 -0.578125q1.265625 -0.875 1.78125 -1.125q0.296875 -0.140625 0.53125 -0.140625q0.25 0 0.46875 0.28125q1.03125 1.3125 1.734375 3.515625q0.703125 2.203125 0.703125 4.28125q0 0.265625 -0.015625 0.828125q1.984375 -3.65625 1.984375 -5.796875q0 -0.4375 -0.203125 -1.1875q-0.21875 -0.8125 -0.21875 -1.171875q0 -0.328125 0.21875 -0.546875q0.21875 -0.234375 0.546875 -0.234375q0.40625 0 0.65625 0.328125q0.265625 0.3125 0.265625 0.890625q0 1.515625 -0.703125 3.78125q-0.6875 2.25 -2.171875 4.84375q-1.484375 2.59375 -2.703125 3.84375q-1.21875 1.265625 -2.375 1.8125q-1.140625 0.546875 -2.15625 0.546875q-0.765625 0 -1.15625 -0.296875q-0.40625 -0.28125 -0.40625 -0.671875q0 -0.359375 0.3125 -0.609375q0.296875 -0.25 0.8125 -0.25q0.40625 0 1.09375 0.15625q0.734375 0.15625 1.015625 0.15625q0.703125 0 1.5 -0.59375q1.09375 -0.8125 1.734375 -1.953125q0.640625 -1.140625 0.640625 -2.296875q0 -1.640625 -0.484375 -3.921875q-0.46875 -2.28125 -1.328125 -3.484375q-0.4375 -0.625 -0.9375 -0.625q-0.5625 0 -1.640625 0.765625z" fill-rule="nonzero"/><path fill="#000000" d="m414.99957 262.41147l-0.328125 -0.15625q0.515625 -1.03125 1.0625 -1.421875q0.546875 -0.390625 1.234375 -0.390625q0.8125 0 1.296875 0.515625q0.5 0.515625 0.5 1.21875q0 0.421875 -0.1875 0.875q-0.171875 0.4375 -0.578125 0.921875q-0.25 0.3125 -1.421875 1.3125q-1.578125 1.375 -2.21875 2.21875q0.859375 -0.046875 1.75 -0.046875q0.296875 0 0.515625 0.015625q0.46875 0.015625 0.65625 -0.09375q0.171875 -0.109375 0.578125 -0.75l0.4375 0q-0.515625 0.734375 -0.90625 1.796875q-0.46875 -0.09375 -0.984375 -0.140625q-0.515625 -0.03125 -1.078125 -0.03125q-0.671875 0 -1.96875 0.078125l0.125 -0.40625q0.59375 -0.875 1.78125 -1.984375q1.15625 -1.09375 1.5 -1.53125q0.484375 -0.625 0.703125 -1.1875q0.171875 -0.421875 0.171875 -0.8125q0 -0.578125 -0.328125 -0.921875q-0.3125 -0.359375 -0.78125 -0.359375q-0.390625 0 -0.765625 0.28125q-0.375 0.28125 -0.765625 1.0z" fill-rule="nonzero"/><path fill="#000000" fill-opacity="0.0" d="m270.73227 273.47507l44.566956 -125.41733" fill-rule="evenodd"/><path stroke="#4a86e8" stroke-width="2.0" stroke-linejoin="round" stroke-linecap="butt" d="m270.73227 273.47507l40.54889 -114.110016" fill-rule="evenodd"/><path fill="#4a86e8" stroke="#4a86e8" stroke-width="2.0" stroke-linecap="butt" d="m314.39395 160.47118l-0.07373047 -9.6584015l-6.151825 7.4461517z" fill-rule="evenodd"/><path fill="#000000" fill-opacity="0.0" d="m271.4147 271.42258l94.70865 -102.80316" fill-rule="evenodd"/><path stroke="#4a86e8" stroke-width="2.0" stroke-linejoin="round" stroke-linecap="butt" d="m271.4147 271.42258l86.57794 -93.97752" fill-rule="evenodd"/><path fill="#4a86e8" stroke="#4a86e8" stroke-width="2.0" stroke-linecap="butt" d="m360.42224 179.68333l3.7200623 -8.913544l-8.579254 4.4369507z" fill-rule="evenodd"/><path fill="#000000" fill-opacity="0.0" d="m305.39108 120.402885l26.740143 0l0 42.015755l-26.740143 0z" fill-rule="evenodd"/><path fill="#000000" d="m323.20358 138.88539q0 0.484375 -0.328125 0.9375q-0.328125 0.453125 -0.71875 0.75q-0.390625 0.296875 -0.71875 0.765625q-0.328125 0.46875 -0.328125 0.984375l0 0.65625l1.046875 0l0 -0.5625q0 -0.453125 0.3125 -0.859375q0.328125 -0.40625 0.71875 -0.6875q0.40625 -0.296875 0.71875 -0.8125q0.328125 -0.53125 0.328125 -1.171875q0 -1.015625 -0.671875 -1.625q-0.671875 -0.609375 -1.796875 -0.609375q-2.5625 0 -2.5625 2.71875l0.984375 0q0 -0.875 0.328125 -1.328125q0.328125 -0.46875 1.1875 -0.46875q0.671875 0 1.078125 0.359375q0.421875 0.359375 0.421875 0.953125zm-1.046875 5.1875l-1.046875 0l0 1.21875l1.046875 0l0 -1.21875zm-0.390625 3.515625l-6.71875 -6.71875l6.71875 -6.703125l6.6875 6.703125l-6.6875 6.71875z" fill-rule="nonzero"/><path fill="#000000" d="m337.9047 138.88539q0 0.484375 -0.328125 0.9375q-0.328125 0.453125 -0.71875 0.75q-0.390625 0.296875 -0.71875 0.765625q-0.328125 0.46875 -0.328125 0.984375l0 0.65625l1.046875 0l0 -0.5625q0 -0.453125 0.3125 -0.859375q0.328125 -0.40625 0.71875 -0.6875q0.40625 -0.296875 0.71875 -0.8125q0.328125 -0.53125 0.328125 -1.171875q0 -1.015625 -0.671875 -1.625q-0.671875 -0.609375 -1.796875 -0.609375q-2.5625 0 -2.5625 2.71875l0.984375 0q0 -0.875 0.328125 -1.328125q0.328125 -0.46875 1.1875 -0.46875q0.671875 0 1.078125 0.359375q0.421875 0.359375 0.421875 0.953125zm-1.046875 5.1875l-1.046875 0l0 1.21875l1.046875 0l0 -1.21875zm-0.390625 3.515625l-6.71875 -6.71875l6.71875 -6.703125l6.6875 6.703125l-6.6875 6.71875z" fill-rule="nonzero"/><path fill="#000000" fill-opacity="0.0" d="m362.30972 154.7769l100.22046 0l0 42.015747l-100.22046 0z" fill-rule="evenodd"/><path fill="#000000" d="m384.20035 173.41565q0 1.515625 -0.65625 3.078125q-0.65625 1.546875 -1.71875 2.765625q-1.0625 1.21875 -2.546875 2.0q-1.46875 0.765625 -3.03125 0.765625q-1.859375 0 -3.15625 -1.171875q-1.28125 -1.171875 -1.28125 -3.015625q0 -1.546875 0.609375 -3.140625q0.625 -1.59375 1.640625 -2.875q1.03125 -1.28125 2.515625 -2.09375q1.5 -0.8125 3.109375 -0.8125q2.015625 0 3.265625 1.25q1.25 1.234375 1.25 3.25zm-2.6875 -1.53125q0 -1.03125 -0.484375 -1.671875q-0.46875 -0.65625 -1.46875 -0.65625q-0.8125 0 -1.546875 0.53125q-0.71875 0.53125 -1.25 1.40625q-0.515625 0.875 -0.84375 1.65625q-0.3125 0.765625 -0.578125 1.59375l5.75 0q0.421875 -1.765625 0.421875 -2.859375zm-0.65625 3.671875l-5.78125 0q-0.578125 2.171875 -0.578125 3.34375q0 2.5 1.9375 2.5q0.859375 0 1.625 -0.609375q0.765625 -0.625 1.3125 -1.625q0.5625 -1.015625 0.890625 -1.859375q0.34375 -0.859375 0.59375 -1.75z" fill-rule="nonzero"/><path fill="#000000" d="m394.6347 179.54065l0 -3.671875l-3.640625 0l0 -1.515625l3.640625 0l0 -3.640625l1.546875 0l0 3.640625l3.640625 0l0 1.515625l-3.640625 0l0 3.671875l-1.546875 0zm18.953278 -6.421875l-1.171875 0.9375q-1.125 -0.84375 -2.09375 -0.84375q-0.796875 0 -1.171875 0.4375q-0.375 0.421875 -0.375 0.921875q0 0.625 0.546875 1.0625q0.546875 0.421875 1.609375 0.421875q0.140625 0 0.453125 -0.015625l0 1.375q-0.28125 -0.015625 -0.4375 -0.015625q-1.296875 0 -1.8125 0.515625q-0.5 0.5 -0.5 1.125q0 0.640625 0.5 1.09375q0.515625 0.4375 1.21875 0.4375q1.296875 0 2.40625 -1.203125l1.171875 1.0q-1.453125 1.546875 -3.625 1.546875q-1.703125 0 -2.546875 -0.859375q-0.828125 -0.875 -0.828125 -2.015625q0 -1.65625 1.609375 -2.34375q-1.34375 -0.75 -1.34375 -2.09375q0 -1.078125 0.78125 -1.9375q0.796875 -0.859375 2.4375 -0.859375q1.890625 0 3.171875 1.3125z" fill-rule="nonzero"/><path fill="#000000" d="m420.182 181.60315q-0.265625 0 -0.96875 0.515625l-0.46875 -0.40625l5.4375 -6.59375l-2.703125 0q-0.421875 0 -0.6875 0.25q-0.25 0.25 -0.484375 0.875l-0.515625 -0.046875l0.796875 -2.875l5.8125 0l0 0.1875l-5.234375 6.25q0.765625 0.328125 1.25 0.859375q0.5 0.515625 0.65625 0.9375q0.15625 0.421875 0.390625 0.734375q0.234375 0.328125 0.578125 0.328125q0.171875 0 0.28125 -0.09375q0.125 -0.078125 0.125 -0.21875q0 -0.0625 -0.1875 -0.34375q-0.1875 -0.28125 -0.1875 -0.515625q0 -0.390625 0.28125 -0.671875q0.28125 -0.296875 0.65625 -0.296875q0.390625 0 0.6875 0.296875q0.296875 0.28125 0.296875 0.671875q0 0.71875 -0.578125 1.203125q-0.578125 0.5 -1.4375 0.5q-0.703125 0 -1.46875 -0.390625q-0.765625 -0.390625 -1.390625 -0.78125q-0.609375 -0.375 -0.9375 -0.375z" fill-rule="nonzero"/></g></svg>