<svg version="1.1" viewBox="0.0 0.0 717.9658792650919 361.11548556430444" fill="none" stroke="none" stroke-linecap="square" stroke-miterlimit="10" xmlns:xlink="http://www.w3.org/1999/xlink" xmlns="http://www.w3.org/2000/svg"><clipPath id="p.0"><path d="m0 0l717.9659 0l0 361.11548l-717.9659 0l0 -361.11548z" clip-rule="nonzero"/></clipPath><g clip-path="url(#p.0)"><path fill="#000000" fill-opacity="0.0" d="m0 0l717.9659 0l0 361.11548l-717.9659 0z" fill-rule="evenodd"/><path fill="#000000" fill-opacity="0.0" d="m299.97113 236.67192l0 -211.27559" fill-rule="evenodd"/><path stroke="#000000" stroke-width="2.0" stroke-linejoin="round" stroke-linecap="butt" stroke-dasharray="8.0,6.0" d="m299.97113 236.67192l0 -199.2756" fill-rule="evenodd"/><path fill="#000000" stroke="#000000" stroke-width="2.0" stroke-linecap="butt" d="m303.2746 37.396324l-3.3034668 -9.076195l-3.3034668 9.076195z" fill-rule="evenodd"/><path fill="#000000" fill-opacity="0.0" d="m301.021 235.60892l218.64569 0" fill-rule="evenodd"/><path stroke="#000000" stroke-width="2.0" stroke-linejoin="round" stroke-linecap="butt" d="m301.021 235.60892l206.64566 0" fill-rule="evenodd"/><path fill="#000000" stroke="#000000" stroke-width="2.0" stroke-linecap="butt" d="m507.66666 238.91238l9.076202 -3.3034668l-9.076202 -3.3034515z" fill-rule="evenodd"/><path fill="#000000" fill-opacity="0.0" d="m301.021 235.61942l-121.921265 92.50394" fill-rule="evenodd"/><path stroke="#000000" stroke-width="2.0" stroke-linejoin="round" stroke-linecap="butt" d="m301.021 235.61942l-112.36142 85.2507" fill-rule="evenodd"/><path fill="#000000" stroke="#000000" stroke-width="2.0" stroke-linecap="butt" d="m186.66284 318.2384l-5.233841 8.117706l9.22731 -2.8542786z" fill-rule="evenodd"/><path fill="#000000" fill-opacity="0.0" d="m299.99475 40.115486l0 151.90552" fill-rule="evenodd"/><path stroke="#000000" stroke-width="2.0" stroke-linejoin="round" stroke-linecap="butt" d="m299.99475 40.115486l0 151.90552" fill-rule="evenodd"/><path fill="#000000" fill-opacity="0.0" d="m299.97113 235.60892l-190.23622 0" fill-rule="evenodd"/><path stroke="#000000" stroke-width="2.0" stroke-linejoin="round" stroke-linecap="butt" d="m299.97113 235.60892l-178.23622 0" fill-rule="evenodd"/><path fill="#000000" stroke="#000000" stroke-width="2.0" stroke-linecap="butt" d="m121.73491 232.30547l-9.076195 3.3034515l9.076195 3.3034668z" fill-rule="evenodd"/><path fill="#000000" fill-opacity="0.0" d="m302.0735 234.56955l275.40155 -46.23622" fill-rule="evenodd"/><path stroke="#9900ff" stroke-width="3.0" stroke-linejoin="round" stroke-linecap="butt" stroke-dasharray="12.0,9.0,3.0,9.0" d="m302.0735 234.56955l257.65002 -43.255966" fill-rule="evenodd"/><path fill="#9900ff" stroke="#9900ff" stroke-width="3.0" stroke-linecap="butt" d="m560.54395 196.2004l12.605957 -7.140915l-14.246826 -2.6327057z" fill-rule="evenodd"/><path fill="#000000" fill-opacity="0.0" d="m301.021 237.72179l-228.09448 -30.48819" fill-rule="evenodd"/><path stroke="#9900ff" stroke-width="3.0" stroke-linejoin="round" stroke-linecap="butt" stroke-dasharray="12.0,9.0,3.0,9.0" d="m301.021 237.72179l-210.25316 -28.103424" fill-rule="evenodd"/><path fill="#9900ff" stroke="#9900ff" stroke-width="3.0" stroke-linecap="butt" d="m91.42433 204.70683l-14.15078 3.1078033l12.837784 6.715225z" fill-rule="evenodd"/><path fill="#000000" fill-opacity="0.0" d="m569.64307 154.15224l34.677124 0l0 42.015747l-34.677124 0z" fill-rule="evenodd"/><path fill="#9900ff" d="m578.95557 181.07224l0 -2.0l3.625 -4.15625q0.890625 -1.015625 1.3125 -1.453125q-0.4375 0.03125 -1.171875 0.046875l-3.40625 0.015625l0 -2.125l7.984375 0l0 1.8125l-3.6875 4.265625l-1.3125 1.40625q1.078125 -0.0625 1.328125 -0.0625l3.96875 0l0 2.25l-8.640625 0z" fill-rule="nonzero"/><path fill="#000000" fill-opacity="0.0" d="m299.97113 235.61942l0.62991333 -109.85826" fill-rule="evenodd"/><path stroke="#3618d6" stroke-width="3.0" stroke-linejoin="round" stroke-linecap="butt" d="m299.97113 235.61942l0.5267029 -91.85855" fill-rule="evenodd"/><path fill="#3618d6" stroke="#3618d6" stroke-width="3.0" stroke-linecap="butt" d="m305.45294 143.78928l-4.8770447 -13.642487l-5.0331726 13.585663z" fill-rule="evenodd"/><path fill="#000000" fill-opacity="0.0" d="m288.40945 189.35957l24.15747 0" fill-rule="evenodd"/><path stroke="#000000" stroke-width="1.0" stroke-linejoin="round" stroke-linecap="butt" stroke-dasharray="1.0,3.0" d="m288.40945 189.35957l24.15747 0" fill-rule="evenodd"/><path fill="#000000" fill-opacity="0.0" d="m309.43045 171.50394l34.677155 0l0 42.015747l-34.677155 0z" fill-rule="evenodd"/><path fill="#3618d6" d="m321.57108 198.42393l-3.0625 -9.671875l2.484375 0l1.8125 6.34375l1.671875 -6.34375l2.46875 0l1.609375 6.34375l1.859375 -6.34375l2.515625 0l-3.109375 9.671875l-2.453125 0l-1.671875 -6.21875l-1.640625 6.21875l-2.484375 0z" fill-rule="nonzero"/><g filter="url(#shadowFilter-p.1)"><use xlink:href="#p.1" transform="matrix(1.0 0.0 0.0 1.0 0.0 79.0)"/></g><defs><filter id="shadowFilter-p.1" filterUnits="userSpaceOnUse"><feGaussianBlur in="SourceAlpha" stdDeviation="4.5" result="blur"/><feComponentTransfer in="blur" color-interpolation-filters="sRGB"><feFuncR type="linear" slope="0" intercept="0.0"/><feFuncG type="linear" slope="0" intercept="0.0"/><feFuncB type="linear" slope="0" intercept="0.0"/><feFuncA type="linear" slope="0.6" intercept="0"/></feComponentTransfer></filter></defs><g id="p.1"><path fill="#83bbea" fill-opacity="0.6592" d="m27.737534 212.5534l120.87921 -49.403442l527.6562 -0.07687378l-120.87921 49.403442z" fill-rule="evenodd"/><path stroke="#000000" stroke-width="2.0" stroke-linejoin="round" stroke-linecap="butt" stroke-dasharray="2.0,6.0" d="m27.737534 212.5534l120.87921 -49.403442l527.6562 -0.07687378l-120.87921 49.403442z" fill-rule="evenodd"/></g><path fill="#000000" fill-opacity="0.0" d="m257.02625 174.40945l30.393707 0l0 42.015747l-30.393707 0z" fill-rule="evenodd"/><path fill="#cc0000" d="m267.60437 187.97008l7.296875 0l0 1.328125l-5.09375 0q0.90625 0.9375 2.84375 2.28125q1.734375 1.203125 2.421875 2.234375q0.6875 1.015625 0.6875 2.78125q0 2.359375 -1.28125 3.65625q-1.265625 1.296875 -3.3125 1.296875q-2.21875 0 -3.359375 -1.453125q-1.125 -1.46875 -1.125 -3.46875q0 -2.328125 1.1875 -3.546875q1.203125 -1.234375 2.859375 -1.296875q-0.84375 -0.59375 -3.125 -2.625l0 -1.1875zm0.75 8.671875q0 1.546875 0.8125 2.5625q0.828125 1.0 2.09375 1.0q1.109375 0 1.953125 -0.859375q0.859375 -0.859375 0.859375 -2.703125q0 -1.71875 -0.8125 -2.65625q-0.8125 -0.9375 -2.046875 -0.9375q-1.359375 0 -2.109375 1.0625q-0.75 1.046875 -0.75 2.53125z" fill-rule="nonzero"/><path fill="#000000" fill-opacity="0.0" d="m299.22308 234.93439l-13.13385 -55.27559" fill-rule="evenodd"/><path stroke="#cc0000" stroke-width="2.0" stroke-linejoin="round" stroke-linecap="butt" d="m299.22308 234.93439l-10.359802 -43.600647" fill-rule="evenodd"/><path fill="#cc0000" stroke="#cc0000" stroke-width="2.0" stroke-linecap="butt" d="m292.07727 190.57008l-5.312134 -8.066681l-1.1158447 9.594009z" fill-rule="evenodd"/><path fill="#000000" fill-opacity="0.0" d="m72.926506 166.80577l34.67717 0l0 42.015747l-34.67717 0z" fill-rule="evenodd"/><path fill="#9900ff" d="m89.582756 197.41327l0 -4.875q-0.5 0.65625 -1.25 1.03125q-0.734375 0.375 -1.609375 0.375q-1.640625 0 -2.703125 -1.234375q-1.265625 -1.453125 -1.265625 -3.9375q0 -2.328125 1.171875 -3.625q1.1875 -1.3125 2.9375 -1.3125q0.96875 0 1.671875 0.40625q0.703125 0.40625 1.25 1.234375l0 -1.421875l2.359375 0l0 13.359375l-2.5625 0zm0.09375 -8.640625q0 -1.484375 -0.609375 -2.203125q-0.609375 -0.734375 -1.515625 -0.734375q-0.9375 0 -1.5625 0.75q-0.625 0.734375 -0.625 2.328125q0 1.59375 0.59375 2.3125q0.609375 0.703125 1.5 0.703125q0.875 0 1.546875 -0.796875q0.671875 -0.796875 0.671875 -2.359375z" fill-rule="nonzero"/></g></svg>